<svg width="218" height="100" viewBox="0 0 218 100" fill="none" xmlns="http://www.w3.org/2000/svg">
<path d="M40.8283 45.2251L36.0559 53.4866C35.8434 53.8547 35.5377 54.1603 35.1697 54.3728C34.8016 54.5853 34.3841 54.6972 33.9591 54.6972C33.534 54.6972 33.1165 54.5853 32.7484 54.3728C32.3804 54.1603 32.0747 53.8547 31.8622 53.4866L31.2472 52.4213C31.0347 52.0532 30.729 51.7476 30.3609 51.5351C29.9929 51.3226 29.5753 51.2107 29.1503 51.2107C28.7253 51.2107 28.3078 51.3226 27.9397 51.5351C27.5717 51.7476 27.266 52.0532 27.0535 52.4213L14.7169 73.7893C14.5044 74.1574 14.1987 74.4631 13.8306 74.6756C13.4626 74.8881 13.045 75 12.62 75H3.07521C2.65019 75 2.23265 74.8881 1.86458 74.6756C1.4965 74.4631 1.19085 74.1574 0.97834 73.7893C0.765833 73.4212 0.653958 73.0037 0.653961 72.5787C0.653964 72.1536 0.765844 71.7361 0.978356 71.368L27.0462 26.2105C27.2587 25.8425 27.5644 25.5369 27.9325 25.3244C28.3005 25.1119 28.7181 25 29.1431 25C29.5681 25 29.9856 25.1119 30.3537 25.3244C30.7217 25.5369 31.0274 25.8425 31.2399 26.2105L40.8211 42.8038C41.0347 43.1713 41.1478 43.5885 41.1491 44.0135C41.1504 44.4385 41.0397 44.8564 40.8283 45.2251Z" fill="#00ADB5"/>
<path d="M55.3419 74.9999H45.6445C45.2312 75.0005 44.825 74.892 44.4671 74.6854C44.1091 74.4788 43.812 74.1814 43.6058 73.8232C43.3987 73.4656 43.2897 73.0596 43.2897 72.6464C43.2897 72.2332 43.3987 71.8273 43.6058 71.4697L48.4484 63.0701C48.655 62.7127 48.9521 62.4159 49.3097 62.2095C49.6674 62.0032 50.073 61.8945 50.4859 61.8945C50.8988 61.8945 51.3045 62.0032 51.6621 62.2095C52.0197 62.4159 52.3168 62.7127 52.5235 63.0701L57.3661 71.4697C57.5721 71.8264 57.6808 72.231 57.6814 72.6429C57.682 73.0549 57.5745 73.4598 57.3696 73.8171C57.1647 74.1745 56.8696 74.4718 56.5137 74.6794C56.1579 74.887 55.7538 74.9975 55.3419 74.9999Z" fill="#00ADB5"/>
<path d="M81.3734 75H71.8407C71.4157 75 70.9982 74.8881 70.6301 74.6756C70.262 74.4631 69.9564 74.1574 69.7439 73.7893L57.3952 52.4213C57.1826 52.0532 56.877 51.7476 56.5089 51.5351C56.1408 51.3226 55.7233 51.2107 55.2983 51.2107C54.8733 51.2107 54.4558 51.3226 54.0877 51.5351C53.7196 51.7476 53.414 52.0532 53.2014 52.4213L40.8673 73.7893C40.6548 74.1574 40.3491 74.4631 39.981 74.6756C39.613 74.8881 39.1954 75 38.7704 75H29.2256C28.8006 75 28.383 74.8881 28.015 74.6756C27.6469 74.4631 27.3412 74.1574 27.1287 73.7893C26.9162 73.4212 26.8043 73.0037 26.8044 72.5787C26.8044 72.1536 26.9162 71.7361 27.1287 71.368L53.1966 26.2105C53.4091 25.8425 53.7148 25.5369 54.0829 25.3244C54.4509 25.1119 54.8684 25 55.2935 25C55.7185 25 56.136 25.1119 56.5041 25.3244C56.8721 25.5369 57.1778 25.8425 57.3903 26.2105L83.463 71.368C83.6752 71.7356 83.7871 72.1524 83.7874 72.5769C83.7877 73.0013 83.6765 73.4183 83.4648 73.7862C83.2532 74.154 82.9486 74.4598 82.5815 74.6729C82.2144 74.8859 81.7978 74.9987 81.3734 75Z" fill="#EEEEEE"/>
<path d="M112.595 58L109.163 52.84L106.139 58H101.483L106.883 49.432L101.363 41.152H106.139L109.523 46.24L112.499 41.152H117.155L111.803 49.648L117.371 58H112.595ZM131.575 51.088C131.575 51.472 131.551 51.872 131.503 52.288H122.215C122.279 53.12 122.543 53.76 123.007 54.208C123.487 54.64 124.071 54.856 124.759 54.856C125.783 54.856 126.495 54.424 126.895 53.56H131.263C131.039 54.44 130.631 55.232 130.039 55.936C129.463 56.64 128.735 57.192 127.855 57.592C126.975 57.992 125.991 58.192 124.903 58.192C123.591 58.192 122.423 57.912 121.399 57.352C120.375 56.792 119.575 55.992 118.999 54.952C118.423 53.912 118.135 52.696 118.135 51.304C118.135 49.912 118.415 48.696 118.975 47.656C119.551 46.616 120.351 45.816 121.375 45.256C122.399 44.696 123.575 44.416 124.903 44.416C126.199 44.416 127.351 44.688 128.359 45.232C129.367 45.776 130.151 46.552 130.711 47.56C131.287 48.568 131.575 49.744 131.575 51.088ZM127.375 50.008C127.375 49.304 127.135 48.744 126.655 48.328C126.175 47.912 125.575 47.704 124.855 47.704C124.167 47.704 123.583 47.904 123.103 48.304C122.639 48.704 122.351 49.272 122.239 50.008H127.375ZM146.484 44.608V58H142.38V56.176C141.964 56.768 141.396 57.248 140.676 57.616C139.972 57.968 139.188 58.144 138.324 58.144C137.3 58.144 136.396 57.92 135.612 57.472C134.828 57.008 134.22 56.344 133.788 55.48C133.356 54.616 133.14 53.6 133.14 52.432V44.608H137.22V51.88C137.22 52.776 137.452 53.472 137.916 53.968C138.38 54.464 139.004 54.712 139.788 54.712C140.588 54.712 141.22 54.464 141.684 53.968C142.148 53.472 142.38 52.776 142.38 51.88V44.608H146.484ZM156.872 58L154.304 54.28L152.144 58H147.704L152.12 51.16L147.584 44.608H152.192L154.76 48.304L156.92 44.608H161.36L156.872 51.352L161.48 58H156.872ZM168.894 41.152C170.67 41.152 172.222 41.504 173.55 42.208C174.878 42.912 175.902 43.904 176.622 45.184C177.358 46.448 177.726 47.912 177.726 49.576C177.726 51.224 177.358 52.688 176.622 53.968C175.902 55.248 174.87 56.24 173.526 56.944C172.198 57.648 170.654 58 168.894 58H162.582V41.152H168.894ZM168.63 54.448C170.182 54.448 171.39 54.024 172.254 53.176C173.118 52.328 173.55 51.128 173.55 49.576C173.55 48.024 173.118 46.816 172.254 45.952C171.39 45.088 170.182 44.656 168.63 44.656H166.686V54.448H168.63ZM192.163 51.088C192.163 51.472 192.139 51.872 192.091 52.288H182.803C182.867 53.12 183.131 53.76 183.595 54.208C184.075 54.64 184.659 54.856 185.347 54.856C186.371 54.856 187.083 54.424 187.483 53.56H191.851C191.627 54.44 191.219 55.232 190.627 55.936C190.051 56.64 189.323 57.192 188.443 57.592C187.563 57.992 186.579 58.192 185.491 58.192C184.179 58.192 183.011 57.912 181.987 57.352C180.963 56.792 180.163 55.992 179.587 54.952C179.011 53.912 178.723 52.696 178.723 51.304C178.723 49.912 179.003 48.696 179.563 47.656C180.139 46.616 180.939 45.816 181.963 45.256C182.987 44.696 184.163 44.416 185.491 44.416C186.787 44.416 187.939 44.688 188.947 45.232C189.955 45.776 190.739 46.552 191.299 47.56C191.875 48.568 192.163 49.744 192.163 51.088ZM187.963 50.008C187.963 49.304 187.723 48.744 187.243 48.328C186.763 47.912 186.163 47.704 185.443 47.704C184.755 47.704 184.171 47.904 183.691 48.304C183.227 48.704 182.939 49.272 182.827 50.008H187.963ZM199.872 54.16L202.776 44.608H207.144L202.392 58H197.328L192.576 44.608H196.968L199.872 54.16Z" fill="#EEEEEE"/>
</svg>
